<svg width="96" height="96" fill="none" xmlns="http://www.w3.org/2000/svg"><path d="M0 12C0 5.373 5.373 0 12 0h72c6.627 0 12 5.373 12 12v72c0 6.627-5.373 12-12 12H12C5.373 96 0 90.627 0 84V12z" fill="#10191F"/><path fill-rule="evenodd" clip-rule="evenodd" d="M47.87 45.893c3.204 0 4.928-1.667 4.928-3.984 0-2.456-1.724-3.984-4.928-3.984h-3.939a.633.633 0 00-.643.623v6.722c0 .344.287.623.643.623h3.94zm-2.22 6.3h-1.718a.633.633 0 00-.643.623V63.8a.633.633 0 01-.644.623h-6.5a.633.633 0 01-.642-.623V32.2c0-.344.288-.623.643-.623H49.35c6.9 0 11.334 4.448 11.334 10.284 0 4.21-2.34 7.464-6.224 9.019-.355.142-.52.537-.344.868l6.28 11.766c.222.414-.089.909-.57.909h-7.12a.647.647 0 01-.577-.346l-5.903-11.538a.646.646 0 00-.577-.346z" fill="#fff"/><path fill-rule="evenodd" clip-rule="evenodd" d="M13.9 60.15l1.746-1.747a.634.634 0 01.896 0l5.676 5.675c.119.12.185.28.185.448v8.437c0 .35.284.633.634.633h8.436c.168 0 .33.067.448.186l5.676 5.676a.634.634 0 010 .895L35.85 82.1a.632.632 0 01-.447.185H14.348a.633.633 0 01-.634-.633V60.597c0-.168.067-.329.186-.448" fill="#F7DA61"/><path fill-rule="evenodd" clip-rule="evenodd" d="M23.037 73.597a.631.631 0 01-.448-.185l-8.69 8.688a.631.631 0 00.449.186h21.055a.634.634 0 00.447-.186l1.747-1.746a.633.633 0 000-.896l-5.676-5.676a.632.632 0 00-.447-.185h-8.437z" fill="#EEAD09"/><path fill-rule="evenodd" clip-rule="evenodd" d="M60.149 13.9l-1.747 1.746a.634.634 0 000 .896l5.676 5.676c.119.119.28.185.448.185h8.437c.35 0 .633.284.633.634v8.437c0 .168.067.33.186.448l5.675 5.676a.633.633 0 00.896 0L82.1 35.85a.634.634 0 00.185-.448V14.348a.633.633 0 00-.633-.634H60.597a.634.634 0 00-.448.186" fill="#F7DA61"/><path fill-rule="evenodd" clip-rule="evenodd" d="M82.1 13.9l-8.69 8.689a.633.633 0 01.186.448v8.437a.63.63 0 00.185.448l5.676 5.676a.633.633 0 00.896 0l1.746-1.747a.633.633 0 00.186-.448V14.348a.632.632 0 00-.186-.448z" fill="#EEAD09"/></svg>
