<svg width="32" height="32" fill="none" xmlns="http://www.w3.org/2000/svg"><g clip-path="url(#a)"><path fill-rule="evenodd" clip-rule="evenodd" d="M15.952 0C7.132 0 0 7.333 0 16.406c0 7.252 4.57 13.39 10.908 15.563.792.163 1.083-.353 1.083-.787 0-.38-.027-1.684-.027-3.043-4.437.978-5.361-1.955-5.361-1.955-.713-1.902-1.77-2.39-1.77-2.39-1.452-1.005.106-1.005.106-1.005 1.61.108 2.456 1.684 2.456 1.684 1.426 2.498 3.724 1.792 4.648 1.358.132-1.06.555-1.793 1.004-2.2-3.54-.38-7.263-1.793-7.263-8.095 0-1.792.634-3.259 1.637-4.4-.158-.407-.713-2.091.16-4.346 0 0 1.346-.434 4.383 1.684 1.3-.359 2.641-.541 3.988-.543 1.347 0 2.72.19 3.988.543 3.038-2.118 4.385-1.684 4.385-1.684.871 2.255.316 3.939.158 4.346 1.03 1.141 1.637 2.608 1.637 4.4 0 6.302-3.723 7.687-7.289 8.095.581.516 1.083 1.493 1.083 3.042 0 2.2-.026 3.965-.026 4.508 0 .435.29.951 1.082.788 6.34-2.173 10.908-8.311 10.908-15.563C31.904 7.333 24.748 0 15.952 0Z" fill="#fff"/></g><defs><clipPath id="a"><path fill="#fff" d="M0 0h32v32H0z"/></clipPath></defs></svg>
