<svg width="64" height="64" fill="none" xmlns="http://www.w3.org/2000/svg"><path fill-rule="evenodd" clip-rule="evenodd" d="M31.879 30.033c2.99 0 4.599-1.556 4.599-3.718 0-2.292-1.61-3.719-4.599-3.719h-3.677a.59.59 0 0 0-.6.582v6.274a.59.59 0 0 0 .6.581h3.677Zm-2.073 5.88h-1.603a.59.59 0 0 0-.6.582v10.252a.591.591 0 0 1-.6.581h-6.067c-.331 0-.6-.26-.6-.582V17.253c0-.32.269-.581.6-.581H33.26c6.44 0 10.579 4.152 10.579 9.599 0 3.929-2.184 6.966-5.81 8.417-.331.132-.485.501-.32.81l5.861 10.981c.207.388-.084.849-.532.849h-6.646a.604.604 0 0 1-.538-.323l-5.51-10.769a.603.603 0 0 0-.538-.323Z" fill="#fff"/><path fill-rule="evenodd" clip-rule="evenodd" d="m.173 43.34 1.63-1.631a.592.592 0 0 1 .837 0l5.296 5.297a.59.59 0 0 1 .174.418V55.3c0 .326.264.591.591.591h7.874a.59.59 0 0 1 .418.173l5.297 5.297c.231.231.231.606 0 .837l-1.63 1.63a.59.59 0 0 1-.418.172H.592A.59.59 0 0 1 0 63.41V43.758c0-.157.062-.308.173-.419" fill="#F7DA61"/><path fill-rule="evenodd" clip-rule="evenodd" d="M8.701 55.89a.59.59 0 0 1-.418-.173l-8.11 8.11A.59.59 0 0 0 .592 64h19.65a.591.591 0 0 0 .418-.173l1.63-1.63a.59.59 0 0 0 0-.836l-5.297-5.297a.59.59 0 0 0-.417-.173H8.7Z" fill="#EEAD09"/><path fill-rule="evenodd" clip-rule="evenodd" d="m43.339.173-1.63 1.63a.591.591 0 0 0 0 .836l5.297 5.298a.59.59 0 0 0 .418.173h7.875c.326 0 .59.265.59.591v7.875a.59.59 0 0 0 .174.418l5.297 5.297c.23.231.605.231.836 0l1.63-1.63a.592.592 0 0 0 .173-.418V.591A.591.591 0 0 0 63.41 0H43.756a.592.592 0 0 0-.418.173" fill="#F7DA61"/><path fill-rule="evenodd" clip-rule="evenodd" d="m63.826.173-8.11 8.11a.591.591 0 0 1 .173.418v7.875c0 .157.062.307.174.418l5.297 5.297a.59.59 0 0 0 .836 0l1.63-1.63a.59.59 0 0 0 .173-.418V.591a.59.59 0 0 0-.173-.418Z" fill="#EEAD09"/></svg>
